PathFileType	4	(X/Y/Z)	N:\Shared_Data\Ergonomics\New Model Testing\10-03-21\Test Cal 01.trc																																																																																																																																																													
DataRate	CameraRate	NumFrames	NumMarkers	Units	OrigDataRate	OrigDataStartFrame	OrigNumFrames	
100	100	5	59	mm	100	1371	148
Frame#	Time	R_Knee_Med			R_Knee_Lat			R_Thigh_Upper			R_Thigh_Front			R_Thigh_Rear			L_Knee_Med			L_Knee_Lat			L_Thigh_Upper			L_Thigh_Front			L_Thigh_Rear			R_Ankle_Med			R_Ankle_Lat			R_Shank_Upper			R_Shank_Front			R_Shank_Rear			L_Ankle_Med			L_Ankle_Lat			L_Shank_Upper			L_Shank_Front			L_Shank_Rear			R_Heel			R_MTP1			R_MTP5			L_Heel			L_MTP1			L_MTP5			V_Sacral			R_Pelvis			R_ASIS			L_ASIS			L_Pelvis			Clavicle			Chest			R_Acromium			L_Acromium			R_Elbow			R_Arm_Parallel			R_Arm_Adjacent			L_Elbow			L_Arm_Parallel			L_Arm_Adjacent			R_Forearm2			R_Forearm1			R_Forearm_Base			L_Forearm2			L_Forearm1			L_Forearm_Base			R_Hand_Lower			R_Hand_Med			R_Hand_Lat			L_Hand_Lower			L_Hand_Med			L_Hand_Lat			LAJC			RAJC			LHJC			RHJC			LKJC			RKJC			
		X1	Y1	Z1	X2	Y2	Z2	X3	Y3	Z3	X4	Y4	Z4	X5	Y5	Z5	X6	Y6	Z6	X7	Y7	Z7	X8	Y8	Z8	X9	Y9	Z9	X10	Y10	Z10	X11	Y11	Z11	X12	Y12	Z12	X13	Y13	Z13	X14	Y14	Z14	X15	Y15	Z15	X16	Y16	Z16	X17	Y17	Z17	X18	Y18	Z18	X19	Y19	Z19	X20	Y20	Z20	X21	Y21	Z21	X22	Y22	Z22	X23	Y23	Z23	X24	Y24	Z24	X25	Y25	Z25	X26	Y26	Z26	X27	Y27	Z27	X28	Y28	Z28	X29	Y29	Z29	X30	Y30	Z30	X31	Y31	Z31	X32	Y32	Z32	X33	Y33	Z33	X34	Y34	Z34	X35	Y35	Z35	X36	Y36	Z36	X37	Y37	Z37	X38	Y38	Z38	X39	Y39	Z39	X40	Y40	Z40	X41	Y41	Z41	X42	Y42	Z42	X43	Y43	Z43	X44	Y44	Z44	X45	Y45	Z45	X46	Y46	Z46	X47	Y47	Z47	X48	Y48	Z48	X49	Y49	Z49	X50	Y50	Z50	X51	Y51	Z51	X52	Y52	Z52	X53	Y53	Z53	X54	Y54	Z54	X55	Y55	Z55	X56	Y56	Z56	X57	Y57	Z57	X58	Y58	Z58	X59	Y59	Z59	

1371	13.7	-29.605516	499.03207	12.669663	-42.049168	493.24585	147.2101	54.860466	705.41846	127.17931	44.545654	594.50116	71.886017	10.854168	593.0072	137.85771	-29.328676	501.9996	-63.129181	-79.439659	521.4068	-192.61775	24.609606	720.2915	-183.10454	28.596111	611.09827	-132.63219	-24.946863	605.93011	-192.28078	-68.113426	96.397835	51.808086	-109.70168	78.936752	146.55124	-8.6811714	359.75259	110.60178	-34.490265	244.52315	82.921913	-48.097195	247.03954	144.93082	-82.883133	103.67789	-123.0439	-137.40408	73.341454	-203.48347	-44.576267	345.34497	-183.06425	-54.648449	230.76161	-148.08736	-97.263626	246.52122	-206.7738	-158.50932	51.686123	85.4151	59.920158	46.559395	94.01252	17.698881	26.846592	169.5585	-168.21632	56.510082	-152.86816	24.683165	58.294403	-153.98604	-2.9015701	19.822159	-231.28046	-205.11081	995.07837	-20.108673	-20.540051	1026.1063	185.34424	37.073853	994.91602	122.08008	21.470007	985.7807	-144.13673	-51.740189	1021.9741	-215.13637	48.644234	1539.9761	-21.569786	54.998363	1341.7225	-21.248196	-49.298523	1492.0262	169.96088	-82.760757	1502.9783	-179.87621	-125.86722	1154.6421	275.41089	-121.56862	1229.2235	269.55783	-38.729797	1228.9316	249.90837	-164.40306	1158.9316	-292.44037	-160.13419	1233.7548	-293.02039	-79.021446	1245.5225	-286.78992	-23.184866	1136.9954	274.71368	-3.2202539	1014.0308	291.3616	20.427881	918.71509	300.91086	-47.805248	1118.7091	-305.8631	-31.451334	1030.0635	-318.63971	-8.7341976	944.44043	-325.84607	27.418022	864.28333	310.20065	65.731369	825.66168	275.19904	4.3931637	818.46362	326.65567	4.1628528	882.62537	-329.3363	37.358662	839.37708	-312.0614	-20.151285	835.95459	-349.13168	-110.1436065	88.509672	-163.263685	-88.907553	87.6672935	99.179663	-44.34013086	897.7737827	-99.11058134	-33.18780532	904.3029462	91.15895397	-54.3841675	511.7032	-127.8734655	-35.827342	496.13896	79.9398815
1372	13.71	-29.498167	499.05045	12.73881	-42.037899	493.24942	147.30797	55.025219	705.39319	127.33819	44.626835	594.47357	72.07077	10.905446	593.00012	138.0083	-29.176649	501.97025	-63.044159	-79.360794	521.40558	-192.5126	24.928074	720.22949	-182.99953	28.736589	611.05865	-132.5291	-24.833549	605.90533	-192.18364	-68.126144	96.404106	51.802681	-109.72952	78.971313	146.58902	-8.6450567	359.77048	110.68121	-34.436546	244.54027	82.988029	-48.05328	247.0274	144.97417	-82.887489	103.65994	-123.05341	-137.40288	73.363991	-203.46776	-44.509701	345.34641	-182.98715	-54.605171	230.7522	-148.05946	-97.235794	246.52997	-206.73247	-158.5817	51.628578	85.486481	59.942814	46.566696	94.08255	17.70549	26.824308	169.5795	-168.2178	56.521996	-152.85707	24.691671	58.291763	-153.99434	-2.9044483	19.84458	-231.28658	-206.48871	995.2027	-20.405148	-20.29327	1026.1035	185.49435	37.352306	994.91467	122.27596	21.776367	985.76343	-143.91661	-51.555676	1021.9659	-214.98	49.159073	1539.9102	-21.383326	55.534637	1341.656	-21.123722	-48.759769	1492.035	170.07512	-82.129318	1503.026	-179.79901	-125.6112	1154.6921	275.48297	-121.25784	1229.271	269.61853	-38.422146	1228.9077	250.03749	-164.11993	1159.0151	-292.30487	-159.78192	1233.8638	-292.92783	-78.623932	1245.5669	-286.71201	-22.947369	1136.9469	274.78662	-3.0677261	1013.97	291.44098	20.467546	918.64172	301.01996	-47.637726	1118.6683	-305.83176	-31.375994	1030.0415	-318.61011	-8.6549778	944.41882	-325.8548	27.448282	864.20612	310.26117	65.738571	825.55835	275.30096	4.3557029	818.37408	326.72247	4.1125455	882.58307	-329.32742	37.270714	839.29474	-312.05463	-20.289867	835.92792	-349.78992	-110.1451845	88.5119655	-163.260585	-88.927832	87.6877095	99.1958505	-44.48722917	897.8100173	-98.87122178	-33.35476851	904.3506066	91.38236828	-54.2687215	511.687915	-127.7783795	-35.768033	496.149935	80.02339
1373	13.72	-29.408718	499.06924	12.845775	-42.010372	493.22394	147.3632	55.126202	705.31989	127.51536	44.700798	594.4303	72.2519	10.930673	592.95874	138.11461	-29.056919	501.91711	-62.953552	-79.293907	521.42145	-192.47949	24.902813	720.2337	-182.864	28.853712	610.98346	-132.46643	-24.727072	605.87183	-192.09889	-68.113777	96.400391	51.803467	-109.74376	78.964752	146.58183	-8.6031418	359.79715	110.77043	-34.394398	244.56612	83.047256	-48.017921	247.03609	145.03236	-82.878036	103.66373	-123.01398	-137.40727	73.35688	-203.43481	-44.444138	345.32611	-182.93562	-54.558376	230.73987	-148.01471	-97.20945	246.53755	-206.68774	-158.54207	51.619263	85.467499	59.961124	46.583145	94.175926	17.713652	26.80027	169.66171	-168.20442	56.534569	-152.85602	24.703037	58.287357	-153.98192	-2.9078255	19.846113	-231.30856	-204.97289	995.24976	-20.095066	-20.068739	1026.1052	185.66891	37.609013	994.8999	122.45979	22.030783	985.67377	-143.75069	-51.283279	1021.9146	-214.75974	49.688343	1539.7805	-21.297201	56.029514	1341.5745	-21.018927	-48.271095	1492.0321	170.22673	-81.472115	1503.0576	-179.70895	-125.34398	1154.7291	275.56201	-120.89911	1229.3224	269.733	-38.07526	1228.8903	250.15134	-163.88371	1159.1172	-292.16632	-159.64314	1234.1665	-292.78598	-78.257904	1245.5978	-286.61423	-22.651819	1136.9055	274.83865	-2.8956285	1013.9214	291.52966	20.548317	918.55084	301.04544	-47.441315	1118.6447	-305.7843	-31.248402	1030.0264	-318.54764	-8.5976915	944.39325	-325.80151	27.50481	864.13562	310.36035	65.791672	825.46265	275.37067	4.3614254	818.32678	326.83853	4.1241593	882.53876	-329.25613	37.232166	839.21967	-312.02512	-20.347273	835.90399	-349.72464	-110.142653	88.510305	-163.224395	-88.9287685	87.6825715	99.1926485	-43.97781017	897.7560843	-98.69273044	-32.84377784	904.3501602	91.57253662	-54.175413	511.66928	-127.716521	-35.709545	496.14659	80.1044875
1374	13.73	-29.362368	499.064	12.907392	-42.028278	493.25534	147.46301	55.266396	705.25702	127.65084	44.745708	594.36969	72.404732	10.945291	592.95215	138.23828	-28.907206	501.8829	-62.877155	-79.179199	521.41376	-192.40411	25.071003	720.19623	-182.76965	28.961037	610.92578	-132.39957	-24.61764	605.84479	-191.98647	-68.103874	96.392471	51.79488	-109.75193	78.966118	146.54865	-8.5818548	359.81384	110.82169	-34.365437	244.38838	83.300789	-47.957737	247.03419	145.0878	-82.87532	103.64267	-123.00964	-137.40073	73.360245	-203.3968	-44.369404	345.29184	-182.93272	-54.519852	230.71187	-147.98643	-97.167534	246.54471	-206.66225	-158.51917	51.660553	85.429161	59.981956	46.581242	94.234116	17.71726	26.784796	169.74805	-168.19295	56.532993	-152.82314	24.70006	58.284069	-153.98438	-2.8861897	19.859533	-231.30856	-205.47151	995.19885	-19.895113	-19.82309	1026.1095	185.81351	37.905075	994.89441	122.61938	22.328882	985.62018	-143.55807	-51.032764	1021.8781	-214.64449	50.175476	1539.6499	-21.198338	56.434837	1341.5262	-20.84783	-47.808704	1492.0402	170.31027	-80.962067	1503.0466	-179.64601	-125.08752	1154.7258	275.62061	-120.56286	1229.3328	269.83798	-37.746639	1228.8862	250.24658	-163.61011	1159.1978	-292.05215	-159.31743	1234.2943	-292.74097	-77.953552	1245.5885	-286.56256	-22.342806	1136.8737	274.90598	-2.6558082	1013.8972	291.65479	20.71678	918.55164	301.18048	-47.214745	1118.6078	-305.75562	-31.09182	1030.0334	-318.50143	-8.4826298	944.36749	-325.7749	27.595037	864.07513	310.40826	65.885452	825.36078	275.43555	4.4257846	818.28754	326.91336	4.1774931	882.49353	-329.19226	37.243504	839.14008	-311.9541	-20.293653	835.85779	-349.10504	-110.138025	88.5014575	-163.20322	-88.927902	87.6792945	99.171765	-43.855278	897.7134849	-98.47908795	-32.72260123	904.3419983	91.76428644	-54.0432025	511.64833	-127.6406325	-35.695323	496.15967	80.185201
1375	13.74	-29.295023	499.07309	12.985951	-41.986828	493.2438	147.51561	55.40118	705.19482	127.75446	44.790588	594.27917	72.525726	10.971672	592.92676	138.35426	-28.748438	501.83987	-62.834496	-79.068527	521.41205	-192.31055	25.411846	720.12964	-182.67996	29.091671	610.86768	-132.2876	-24.475636	605.82245	-191.91174	-68.078453	96.394608	51.797325	-109.76316	78.991875	146.55841	-8.55513	359.81763	110.88094	-34.309296	244.42641	83.373421	-47.93232	247.02869	145.1501	-82.848244	103.64485	-122.99248	-137.38484	73.39109	-203.40353	-44.28952	345.26755	-182.8671	-54.470062	230.6933	-147.95729	-97.119453	246.5511	-206.62106	-158.50237	51.721581	85.413956	60.007618	46.59465	94.325508	17.732605	26.749493	169.78801	-168.19156	56.554157	-152.81546	24.717243	58.274063	-153.98773	-2.8900928	19.852425	-231.31671	-205.13597	995.25452	-19.698454	-19.549385	1026.1366	185.95737	38.198441	994.87805	122.77644	22.613523	985.55914	-143.37991	-50.675194	1021.8337	-214.70517	50.62381	1539.5312	-21.109907	56.605419	1341.4644	-20.61562	-47.276329	1492.0367	170.40387	-80.361214	1503.0868	-179.59953	-124.80193	1154.7391	275.71237	-120.21689	1229.3431	269.93982	-37.401749	1228.8746	250.29182	-163.29263	1159.2732	-291.9574	-159.09349	1234.3816	-292.72226	-77.612137	1245.5889	-286.48691	-22.048491	1136.8422	274.93665	-2.4431527	1013.8615	291.72763	20.906548	918.50574	301.21588	-46.950336	1118.6277	-305.66501	-30.859575	1030.0356	-318.36111	-8.3500338	944.34375	-325.62253	27.751644	864.02985	310.49713	66.044617	825.27454	275.4538	4.5960412	818.26196	326.94778	4.2802567	882.46393	-329.12659	37.310688	839.0946	-311.86807	-20.229853	835.83063	-348.99548	-110.116542	88.51797	-163.198005	-88.9208065	87.6932415	99.1778675	-43.59467387	897.6935775	-98.2864096	-32.45570043	904.3540611	91.94292061	-53.9084825	511.62596	-127.572523	-35.6409255	496.158445	80.2507805
